<svg width="38" height="56" viewBox="0 0 38 56" fill="none" xmlns="http://www.w3.org/2000/svg">
<path d="M17.839 55.1C14.889 55.1 12.189 54.675 9.73897 53.825C7.33897 52.975 5.31397 51.75 3.66397 50.15C2.01397 48.55 0.813965 46.7 0.0639651 44.6L4.56396 39.2C4.91397 40.5 5.63897 41.8 6.73897 43.1C7.88897 44.4 9.36397 45.45 11.164 46.25C13.014 47.05 15.164 47.45 17.614 47.45C19.764 47.45 21.664 47.125 23.314 46.475C25.014 45.775 26.364 44.8 27.364 43.55C28.364 42.3 28.864 40.825 28.864 39.125C28.864 37.225 28.264 35.625 27.064 34.325C25.864 33.025 24.139 32.05 21.889 31.4C19.639 30.75 16.939 30.425 13.789 30.425H11.239V23.825H13.789C17.939 23.825 21.239 23.15 23.689 21.8C26.189 20.45 27.439 18.45 27.439 15.8C27.439 14.15 26.989 12.725 26.089 11.525C25.189 10.275 24.014 9.35 22.564 8.75C21.114 8.1 19.514 7.775 17.764 7.775C14.914 7.775 12.439 8.425 10.339 9.725C8.23897 11.025 6.71397 12.625 5.76397 14.525L0.363965 8.6C1.41397 6.95 2.86397 5.525 4.71397 4.325C6.56397 3.125 8.63897 2.2 10.939 1.55C13.289 0.899997 15.664 0.574997 18.064 0.574997C21.564 0.574997 24.689 1.2 27.439 2.45C30.189 3.7 32.339 5.425 33.889 7.625C35.439 9.775 36.214 12.225 36.214 14.975C36.214 16.975 35.789 18.775 34.939 20.375C34.139 21.975 32.964 23.325 31.414 24.425C29.914 25.475 28.114 26.25 26.014 26.75C28.264 27.15 30.239 28 31.939 29.3C33.689 30.6 35.014 32.2 35.914 34.1C36.864 36 37.339 38.075 37.339 40.325C37.339 43.425 36.439 46.075 34.639 48.275C32.889 50.475 30.539 52.175 27.589 53.375C24.639 54.525 21.389 55.1 17.839 55.1Z" fill="white"/>
</svg>
