<svg width="39" height="55" viewBox="0 0 39 55" fill="none" xmlns="http://www.w3.org/2000/svg">
<path d="M0.85127 54.5C0.85127 51.45 1.07627 48.775 1.52627 46.475C1.97627 44.175 2.67627 42.1 3.62627 40.25C4.57627 38.4 5.77627 36.775 7.22627 35.375C8.67627 33.975 10.3513 32.7 12.2513 31.55C14.1013 30.45 16.0013 29.425 17.9513 28.475C19.9513 27.525 21.8013 26.525 23.5013 25.475C25.2013 24.425 26.5513 23.2 27.5513 21.8C28.6013 20.35 29.1263 18.6 29.1263 16.55C29.1263 14.9 28.7763 13.45 28.0763 12.2C27.4263 10.95 26.4263 9.975 25.0763 9.275C23.7763 8.525 22.1013 8.15 20.0513 8.15C17.9513 8.15 16.0013 8.525 14.2013 9.275C12.4513 9.975 10.9013 10.85 9.55127 11.9C8.25127 12.95 7.20127 13.975 6.40127 14.975L1.15127 9.5C1.65127 8.9 2.45127 8.1 3.55127 7.1C4.70127 6.1 6.10127 5.1 7.75127 4.1C9.45127 3.1 11.4013 2.275 13.6013 1.625C15.8013 0.924997 18.2763 0.574997 21.0263 0.574997C24.8263 0.574997 28.0013 1.275 30.5513 2.675C33.1513 4.025 35.1013 5.9 36.4013 8.3C37.7513 10.65 38.4263 13.3 38.4263 16.25C38.4263 18.65 38.0013 20.75 37.1513 22.55C36.3013 24.3 35.1763 25.825 33.7763 27.125C32.4263 28.375 30.9013 29.5 29.2013 30.5C27.5513 31.5 25.9013 32.45 24.2513 33.35C21.4013 34.8 19.1013 36.1 17.3513 37.25C15.6513 38.4 14.3013 39.5 13.3013 40.55C12.3513 41.6 11.6763 42.65 11.2763 43.7C10.8763 44.75 10.6013 45.875 10.4513 47.075H38.5013V54.5H0.85127Z" fill="white"/>
</svg>
